<svg xmlns="http://www.w3.org/2000/svg" viewBox="0 0 974.25 1099.03"><defs><style>.cls-1{fill:#74c69d;}.cls-1,.cls-10,.cls-11,.cls-12,.cls-13,.cls-14,.cls-15,.cls-16,.cls-17,.cls-18,.cls-3,.cls-5,.cls-6,.cls-7,.cls-8,.cls-9{stroke:#1a1a1a;}.cls-1,.cls-10,.cls-11,.cls-12,.cls-13,.cls-14,.cls-15,.cls-16,.cls-17,.cls-18,.cls-2,.cls-3,.cls-5,.cls-6,.cls-7,.cls-8,.cls-9{stroke-linecap:round;stroke-linejoin:round;}.cls-1,.cls-10,.cls-11,.cls-12,.cls-13,.cls-14,.cls-15,.cls-16,.cls-17,.cls-18,.cls-3,.cls-5,.cls-6,.cls-8{stroke-width:3.64px;}.cls-12,.cls-2,.cls-3,.cls-9{fill:none;}.cls-2{stroke:#2d6a4f;}.cls-2,.cls-9{stroke-width:5.47px;}.cls-4{fill:#ced4da;}.cls-5{fill:#2d6a4f;}.cls-6{fill:#fff;}.cls-7{fill:#1c0311;stroke-width:1.82px;}.cls-8{fill:#ffedd8;}.cls-10{fill:#e9e3ef;}.cls-11{fill:#e2eafc;}.cls-12{stroke-dasharray:21.86;}.cls-13{fill:#54cafa;}.cls-14{fill:#e9ecef;}.cls-15{fill:#ffcfd2;}.cls-16{fill:#90caf9;}.cls-17{fill:#ff8fa3;}.cls-18{fill:#1a1a1a;}.cls-19{font-size:55.97px;font-family:ArialRoundedMTBold, Arial Rounded MT Bold;}.cls-20{letter-spacing:-0.02em;}.cls-21{letter-spacing:-0.01em;}.cls-22{fill:#b5b1b3;}.cls-23{fill:#f6f6f6;}.cls-24{fill:#1d1d1b;}.cls-25{font-size:95.23px;font-family:BerlinSansFB-Reg, Berlin Sans FB;}</style></defs><g id="Layer_2" data-name="Layer 2"><g id="Layer_1-2" data-name="Layer 1"><path class="cls-1" d="M795.93,828.64c5.09-34,28-13.2,41.38-4.57,10.12,6.11,21.93-.88,23.65-17.73,1.93-16.05.49-33.39,5.58-48.35,10.26-35.13,42.73-24.49,42.28,13.59-6.19,37.51,18.58,42.51,21.53,16.88,1-31.2,25.39-42,36.74-15.58,10.14,22.3,5.84,64.11-13,71.34-5.4,1.84-11,.09-16.55-.06-29.72,2.37-8.49,34.17-13.73,56.79-2.7,8.66-10.19,12-16.46,10.07-14.08-2.68-26.29-40.53-40.87-21.37-3.38,6.31-2.05,15.45-2.86,23.44-1.51,15-11.11,25.94-21.07,29.08-20.14,6.28-40.37-12-60.53-6.45-9.63,2.68-19.84,10.67-28.59,4.1-14.69-9.86-13.1-65.3-4.78-81.43,5.66-11,15.3-15.17,24.28-18.72C781.23,836.38,787.63,831.92,795.93,828.64Z"/><path class="cls-2" d="M760.54,900.77S856.38,878.05,900.72,823m-10.27-30.26s4.08,33.15-8.28,49.23m19.12,17.19s-9.35,8.81-34.24-5.47m-28.17-7.48s1.44,20.95-7.69,28.45m1.26,28.6s-21-3.76-22-19.24"/><path class="cls-3" d="M802.3,628.18s-7.51,69.35-20.7,102.67-46.43,67.57-45.6,86.3m41.06-26.9c.07,1.52-9.11,19.7-32.28,3.16m.73-54.42s-2.61,34.1,5.19,44.86m59.55-144.76s-1.65,12.8-11.47,15.83"/><ellipse class="cls-4" cx="223.49" cy="1039.36" rx="154.27" ry="59.68"/><path class="cls-5" d="M45.39,947.53H782.26c1.26-2.71,14.55-32.36,6.27-64.75C781.18,854.07,760,835.47,737,839.15c6.1-61.61-3.6-123.25-29.94-150.63C668.16,648.08,587.66,677,544.84,792.4c4.18-75.83-29.24-135-73.11-164.13-58.72-31.16-90,37.61-103.74,56.1-17-28-44.15-62.91-82.85-82.07-44.68-22.12-123.71-32.57-153.88,33.24-10.7,23.36-12.51,50.35-11.83,71.68C77.09,686.84,31.21,715,11.51,771.63-9.59,832.27,4.7,910.14,45.39,947.53Z"/><rect class="cls-6" x="432.16" y="526.06" width="50.36" height="155.46"/><polygon class="cls-7" points="489.43 665.98 425.72 665.98 241.81 790.34 296.84 790.34 457.57 709.05 618.31 790.34 673.34 790.34 489.43 665.98"/><rect class="cls-8" x="135.78" y="790.34" width="593.33" height="140.78"/><line class="cls-3" x1="611.61" y1="807.62" x2="611.61" y2="915.58"/><rect class="cls-7" x="135.78" y="931.12" width="593.33" height="16.41"/><line class="cls-3" x1="328.54" y1="807.62" x2="328.54" y2="915.58"/><line class="cls-3" x1="228.4" y1="807.62" x2="228.4" y2="915.58"/><line class="cls-9" x1="11.62" y1="947.1" x2="819.13" y2="947.1"/><path class="cls-10" d="M179.15,1.82h550c7.33,0,13.27,8.87,13.27,19.8V512.31c0,10.94-5.94,19.8-13.27,19.8h-550c-7.33,0-13.27-8.86-13.27-19.8V21.62C165.88,10.69,171.82,1.82,179.15,1.82Z"/><path class="cls-11" d="M726.8,61.51v410c0,21-11.42,38.1-25.5,38.1H608.13V23.41H701.3C715.38,23.41,726.8,40.47,726.8,61.51Z"/><rect class="cls-11" x="182.09" y="122.73" width="426.04" height="223.69"/><rect class="cls-12" x="195.98" y="136.55" width="398.26" height="192.6"/><ellipse class="cls-6" cx="521.14" cy="244.69" rx="21.35" ry="31.86"/><ellipse class="cls-6" cx="438.66" cy="75.4" rx="21.35" ry="31.86"/><ellipse class="cls-6" cx="497.05" cy="432.36" rx="21.35" ry="31.86"/><rect class="cls-12" x="195.98" y="367.15" width="398.26" height="123.5"/><path class="cls-13" d="M318,233.69s-4.54-2.77,3.56-8.77,17.17,14.31,16.86,21.47-14.08,19.16-14.08,19.16Z"/><path class="cls-8" d="M342.93,193.15s-7.59-9.92-11.92,5.54-10.25,34.8-10.25,34.8,6.73,15.77,11.06,14.39C352.09,234.43,342.93,193.15,342.93,193.15Z"/><polygon class="cls-14" points="345.26 131.98 453.24 145.83 439.32 265.41 335.03 242.79 345.26 131.98"/><path class="cls-6" d="M399,192.35l27.67-22.86,2.16,4.5-30.55,24.59A8.87,8.87,0,0,1,399,192.35Z"/><path class="cls-15" d="M246.15,217.39s-71,103.19-55,153.75c10.21,28.74,41.08-1.73,41.08-1.73Z"/><path class="cls-7" d="M275.37,1001.9l1-7.48s-25.52-4.74-28.77-2.37c0,0-1.3,4-2.88,10C254,1006.71,265.31,1005.17,275.37,1001.9Z"/><path d="M296.51,1009.66c-9.44-1.16-22-1.62-22-1.62l.83-6.14c-10.06,3.27-21.34,4.81-30.63.14-4.1,15.56-10.08,44.36.09,49.86,14.08,7.62,49.67-8.54,61.12-20.77C309.66,1025.82,306,1010.81,296.51,1009.66Z"/><path class="cls-7" d="M161.83,995.47l1.74-11.63s-21.24-11.11-24.83-10.37q-3.78,6.67-7.05,13.95C140.33,997.68,151.23,998.66,161.83,995.47Z"/><path class="cls-16" d="M222.94,465c-17.41,19-47.11,120.15-30.87,264.2-32,81-57.55,248.62-57.55,248.62s20.57,17.78,29.23,13.62c12.54-27.71,71.49-179.14,96.55-337.72,20.43-98.35,33.89-143.36,33.89-143.36l43.63-52.64S240.34,445.93,222.94,465Z"/><path d="M186,1037.74c-13.44,6.29-47.57,4.26-59.35-9.53-7.32-8.57-.89-27.58,5-40.79,8.64,10.26,19.54,11.23,30.14,8.06l-.85,5.71s11.81,6.28,20.54,11.75S190.64,1034.41,186,1037.74Z"/><path class="cls-16" d="M279.1,447c.93,0,70.36,8.61,72,14s3.46,150.48-9.07,241.2S282.43,999,282.43,999s-35,6-39.92-4.62c1.24-30,24.45-223.92,36.21-252.54-4-30.94-31.42-126.36-18.89-195.59"/><path class="cls-7" d="M222.84,472.55s10.63,9.4,37.22,10.06,60.65-9.62,72.52-10.06,19.12-4.39,19.12-4.39V454.11l-128.86,6.2-2.46,8.06Z"/><path class="cls-17" d="M265.64,205.27S245.91,197,226.19,249.6,212.26,453.2,222.94,465s52.68,14.54,68.23,10,45.26-5.2,54.77-8.31S358,430,356.85,399.53s-1-147.26-50.13-184.56C281.66,197.66,265.64,205.27,265.64,205.27Z"/><path class="cls-17" d="M281,271.76s13.38,135.26,82.16,108c59.18-23.43,44.94-156.39,44.94-156.39s-.15-2.31-4.48-2.31-16.09-6.7-16.09,3.46-3.09,69.1-20.74,75.23S341,268.55,338,261.86"/><path class="cls-8" d="M404.35,225.13s11-22.28,8.66-29.78S399.55,180,396.77,179.19s-11.14,8.65-11.84,11.77.78,13.39,2,15.81,3.79,14.89,3.79,16.16S404.35,225.13,404.35,225.13Z"/><path class="cls-6" d="M397.08,190.38s-5,7.51-1.94,12.47-2.08,8.43-2.08,8.43"/><polygon class="cls-6" points="385.38 200.62 379.13 205.69 375.73 209.96 380.68 209.96 386.94 207.08 385.38 200.62"/><path class="cls-8" d="M275.62,179.33s10.14,2,16.48-3.58c13.15-15.69-12.61-78.6-12.61-78.6s-44.41,33.94-44.41,34.63,9.44,44.32,10.06,44.55,8.51,4.39,8.51,4.39,1.86,17.31-.46,29.08c4.48,8.31,24.6,11.32,35.43,1.16,3.09-3.23,1-6,1-6s-4.88-20.32-5.41-25.63"/><path class="cls-7" d="M284.79,183s-8.28-.57-9.93-3.44c9.62.49,9.34.41,9.34.41Zm-24.33-41.06s-14.55-19.86-16.25,2.07,10.06,15,14.24,14.55c0,0,2.16,10.62,0,17.77S242.82,199,236.79,190.87s-17.18-40.48-16.25-57.17,5.57-30.55,13.31-37,36.2-16.16,38.83-30.24c1.24-7.62,7.43-2.31,10.37,7.39s8.2,13.15,3.4,20.31-24.29,17.08-26.61,18c.46,16.16,7.12,30,6,30.47S261.85,145.86,260.46,141.94Z"/><ellipse class="cls-6" cx="670.03" cy="343.41" rx="23.39" ry="34.9"/><path class="cls-6" d="M682.6,359.38H657.47s-.23-4.34,1.28-5.38,2.67-22.39,7-25l1.72-1a5.71,5.71,0,0,1,.68-4.62,2.51,2.51,0,0,1,1.14-1c1.87-.74,3.55,1.34,3.55,4a5.83,5.83,0,0,1-.2,1.57l1.72,1c4.3,2.6,5.46,23.95,7,25S682.6,359.38,682.6,359.38Z"/><path class="cls-18" d="M674.05,359.38c0,3.31-1.8,6-4,6s-4-2.69-4-6Z"/><rect class="cls-6" x="624.92" y="847.35" width="4.05" height="28.5"/><rect class="cls-6" x="337.8" y="847.35" width="4.05" height="28.5"/><rect class="cls-6" x="234.19" y="847.35" width="4.05" height="28.5"/><rect class="cls-7" x="630.13" y="64.01" width="74.09" height="26.77"/><rect class="cls-7" x="630.13" y="463.88" width="74.09" height="26.77"/><rect class="cls-7" x="630.13" y="407.74" width="74.09" height="26.77"/><text class="cls-19" transform="translate(618.65 150.75) scale(0.67 1)">HTML<tspan x="0" y="67.16">CSS</tspan><tspan x="0" y="134.32">J</tspan><tspan class="cls-20" x="32.08" y="134.32">a</tspan><tspan class="cls-21" x="63.94" y="134.32">v</tspan><tspan x="93.54" y="134.32">a </tspan></text><path class="cls-22" d="M811.79,508.56V547.7c0,12.25-4,24-10.91,30.51-2.75,2.6-6,4.41-9.65,4.51V473.61c5.3,0,9.44,3.24,12.56,7.39C809,487.94,811.79,498.12,811.79,508.56Z"/><path class="cls-23" d="M791.23,473.61V582.72h-.31c-4.21,0-7.8-2.37-10.75-5.56-6.1-6.65-9.5-17.5-9.5-28.78V504.47c0-11.56,4.16-22.47,11.09-27.62A15.7,15.7,0,0,1,791.23,473.61Z"/><ellipse class="cls-24" cx="791.23" cy="501.88" rx="4.46" ry="6.66"/><ellipse class="cls-6" cx="96.08" cy="464.84" rx="41.33" ry="61.66"/><text class="cls-25" transform="translate(66.35 491.9) scale(0.67 1)">{ }</text><ellipse class="cls-6" cx="823.58" cy="110.16" rx="41.33" ry="61.66"/><text class="cls-25" transform="translate(792.88 140.6) scale(0.67 1)">&lt; &gt;</text></g></g></svg>