<svg xmlns="http://www.w3.org/2000/svg" viewBox="0 0 2866.4 1612"><defs><style>.cls-1{fill:#b7e4c7;}.cls-1,.cls-2{opacity:0.3;}.cls-2,.cls-4{fill:#74c69d;}.cls-3{opacity:0.5;}</style></defs><g id="Layer_2" data-name="Layer 2"><g id="Layer_1-2" data-name="Layer 1"><path class="cls-1" d="M2866.4,0V1612S1140.68,1547.12,1145.07,289c.31-90.06,9.48-186.26,28.8-289Z"/><path class="cls-2" d="M2866.4,0V979.14S2470.86,1353.78,2097.71,1309s44.78-71.64,192.55-368.67S1575,450.91,1575,450.91C1382.28,409.13,1244.09,350.34,1145.07,289,922.48,151,897.91,0,897.91,0Z"/><g class="cls-3"><path class="cls-4" d="M44.1,226.22c-7-36.06-25.15-71.78-43.48-107V303c0-.05.08-.06.11-.09,6-3.85,11.52-7.66,16.62-11.33C38.06,276.8,49.06,251.23,44.1,226.22ZM58.58,0H1.82c1,1.67,2.12,3.33,3.23,5C41.19,59.33,112.39,106.36,132,165.26,153.19,239.38,80.82,313.52,1.43,305.8a1.66,1.66,0,0,1-.81-.31v58.63c69,2.27,143.59-48.3,153-123.35C168.88,149.1,97.61,79.06,58.58,0Zm184,56.36c-10.91-2.48-19-6.16-24.32-10.94C212.6,40.45,207,31,201.38,17.05L194.69,0H161l3.49,8.85c5,13.27,7.54,23.3,7.54,30.2a16.58,16.58,0,0,1-5.39,12.3c-3.55,3.56-8.62,5.29-15.21,5.29a1.57,1.57,0,0,1-1.58-1.59,1.53,1.53,0,0,1,.6-1.23,40.92,40.92,0,0,0,5.63-5.16c1.5-1.84,2.26-4.75,2.26-8.85,0-6.26-2.26-15-6.91-26.21L146.12,0h-7.24l6.51,16.61c4,9.06,6,16.41,6,22,0,6.36-2.7,10.77-8.09,12.94-5.15,2.16-12.67,3.84-22.73,4.92a1.57,1.57,0,0,0-1.4,1.62A43.55,43.55,0,0,0,132,87.7a44.2,44.2,0,0,0,31.08,12.84h36.78A43.87,43.87,0,0,0,243.75,58,1.57,1.57,0,0,0,242.53,56.36Z"/><path class="cls-4" d="M172,39.05a16.58,16.58,0,0,1-5.39,12.3c-3.55,3.56-8.62,5.29-15.21,5.29a1.57,1.57,0,0,1-1.58-1.59,1.53,1.53,0,0,1,.6-1.23,40.92,40.92,0,0,0,5.63-5.16c1.5-1.84,2.26-4.75,2.26-8.85,0-6.26-2.26-15-6.91-26.21L146.12,0H161l3.49,8.85C169.45,22.12,172,32.15,172,39.05Z"/><path class="cls-4" d="M1.43,305.8a1.66,1.66,0,0,1-.81-.31,1.56,1.56,0,0,1,0-2.49c0-.05.08-.06.11-.09,6-3.85,11.52-7.66,16.62-11.33,20.71-14.78,31.71-40.35,26.75-65.36-7-36.06-25.15-71.78-43.48-107V0h1.2c1,1.67,2.12,3.33,3.23,5C41.19,59.33,112.39,106.36,132,165.26,153.19,239.38,80.82,313.52,1.43,305.8Z"/></g></g></g></svg>