<svg xmlns="http://www.w3.org/2000/svg" viewBox="0 0 1920.42 1080"><defs><style>.cls-1{fill:#b7e4c7;}.cls-1,.cls-2{opacity:0.3;}.cls-2,.cls-4{fill:#74c69d;}.cls-3{opacity:0.5;}</style></defs><g id="Layer_2" data-name="Layer 2"><g id="Layer_1-2" data-name="Layer 1"><path class="cls-1" d="M1920.42,0V1080S764.23,1036.53,767.17,193.61c.21-60.34,6.35-124.79,19.3-193.61Z"/><path class="cls-2" d="M1920.42,0V656s-265,251-515,221,30-48,129-247-479.24-327.9-479.24-327.9c-129.08-28-221.67-67.38-288-108.49C618,101.17,601.58,0,601.58,0Z"/><g class="cls-3"><path class="cls-4" d="M29.55,151.56C24.84,127.4,12.7,103.47.42,79.89V203s0,0,.07-.06c4-2.58,7.72-5.13,11.14-7.59C25.5,185.45,32.87,168.32,29.55,151.56ZM39.25,0h-38c.69,1.12,1.42,2.23,2.17,3.33C27.6,39.75,75.3,71.26,88.45,110.72c14.19,49.66-34.3,99.33-87.49,94.16a1.08,1.08,0,0,1-.54-.21V244c46.2,1.52,96.2-32.36,102.49-82.64C113.15,99.89,65.4,53,39.25,0ZM162.49,37.76c-7.31-1.66-12.74-4.13-16.29-7.33-3.76-3.33-7.52-9.69-11.28-19L130.44,0H107.87l2.34,5.93c3.32,8.89,5.05,15.61,5.05,20.23a11.1,11.1,0,0,1-3.61,8.24c-2.38,2.39-5.78,3.55-10.19,3.55a1.06,1.06,0,0,1-1.06-1.07,1,1,0,0,1,.4-.82,27.31,27.31,0,0,0,3.77-3.46c1-1.23,1.52-3.18,1.52-5.93,0-4.19-1.52-10-4.63-17.56L97.9,0H93.05l4.36,11.13c2.68,6.07,4,11,4,14.75,0,4.26-1.81,7.22-5.42,8.67-3.45,1.45-8.49,2.57-15.23,3.3a1,1,0,0,0-.94,1.08,29.18,29.18,0,0,0,8.58,19.83,29.63,29.63,0,0,0,20.82,8.6h24.64a29.39,29.39,0,0,0,29.4-28.53A1,1,0,0,0,162.49,37.76Z"/><path class="cls-4" d="M115.26,26.16a11.1,11.1,0,0,1-3.61,8.24c-2.38,2.39-5.78,3.55-10.19,3.55a1.06,1.06,0,0,1-1.06-1.07,1,1,0,0,1,.4-.82,27.31,27.31,0,0,0,3.77-3.46c1-1.23,1.52-3.18,1.52-5.93,0-4.19-1.52-10-4.63-17.56L97.9,0h10l2.34,5.93C113.53,14.82,115.26,21.54,115.26,26.16Z"/><path class="cls-4" d="M1,204.88a1.08,1.08,0,0,1-.54-.21,1,1,0,0,1,0-1.67s0,0,.07-.06c4-2.58,7.72-5.13,11.14-7.59,13.87-9.9,21.24-27,17.92-43.79C24.84,127.4,12.7,103.47.42,79.89V0h.8c.69,1.12,1.42,2.23,2.17,3.33C27.6,39.75,75.3,71.26,88.45,110.72,102.64,160.38,54.15,210.05,1,204.88Z"/></g></g></g></svg>