<svg xmlns="http://www.w3.org/2000/svg" viewBox="0 0 177.09 268.69"><defs><style>.cls-1{fill:#2d6a4f;}.cls-2{fill:#fff;}</style></defs><g id="Layer_2" data-name="Layer 2"><g id="Layer_1-2" data-name="Layer 1"><path class="cls-1" d="M176.53,128.29c-5-1.13-8.67-2.81-11.09-5s-5.12-6.6-7.68-12.94L116.34,4.68A7.38,7.38,0,0,0,109.5,0a6.94,6.94,0,0,0-3,.64A146.25,146.25,0,0,0,91.79,8.17h-.05c-.39.24-.73.48-1.11.68l0,0-3.38,2.06s-.1,0-.15.09C34.12,50.18-2.87,109.23.18,177.37c.09,2.06.19,4.36.39,6.23v0a44.31,44.31,0,0,0,.62,6.15.77.77,0,0,1,0,.15A58.33,58.33,0,0,0,2,196.21c.2,1.07.68,4.06,1.07,6.26a1.09,1.09,0,0,0,.05.17c.68,1.5,1.31,3.24,1.93,4.89,9.25,23.47,19.69,49.79,47.24,59,34.44,9.84,78.72-14.76,83.64-54.12,8.21-49.3-38.43-84.87-51.17-129.65l-1.53-6.09A63.33,63.33,0,0,1,82,68a66.69,66.69,0,0,1-.11-13,.13.13,0,0,0,0-.06c0-.59,0-1.21,0-1.79A28.18,28.18,0,0,1,88,37.59a54.36,54.36,0,0,1,10.7-10.16.72.72,0,0,1,1.11.31l19.33,48.92,2.41,6.09,10.73,27.41c1.82,4.13,2.76,7.48,2.76,10,0,2.9-1.24,4.92-3.7,5.9a38.59,38.59,0,0,1-10.36,2.25.72.72,0,0,0-.65.74,19.83,19.83,0,0,0,5.85,13.49,20.19,20.19,0,0,0,14.17,5.86h16.77a20,20,0,0,0,20-19.42A.71.71,0,0,0,176.53,128.29ZM126.13,178c9.66,33.81-23.35,67.61-59.56,64.1a.73.73,0,0,1-.33-1.33c2.74-1.75,5.26-3.49,7.59-5.16A29.81,29.81,0,0,0,86,205.76c-4.77-24.46-20.71-48.56-31.54-72.08-.83-1.77-4.18-9.59-4.57-10.77C40.69,99,39.48,75.58,63.64,53.1a.72.72,0,0,1,1.12.87c-9.15,16.7-7.46,31-.48,44.24a58.79,58.79,0,0,0,3.94,6.64C84.7,129.64,117.17,151.1,126.13,178Zm15.79-52c-1.62,1.62-3.94,2.42-6.93,2.42a.73.73,0,0,1-.73-.73.73.73,0,0,1,.27-.56,17.86,17.86,0,0,0,2.57-2.36,6.27,6.27,0,0,0,1-4c0-2.86-1-6.84-3.14-12l-32.62-83.4a.74.74,0,0,1,.26-.86c1.3-.89,2.64-1.77,4-2.63a.72.72,0,0,1,1.07.33l33.28,84.4c2.26,6,3.44,10.62,3.44,13.77A7.58,7.58,0,0,1,141.92,126Z"/><path class="cls-2" d="M144.38,120.39a7.58,7.58,0,0,1-2.46,5.61c-1.62,1.63-3.94,2.41-6.94,2.41h0a.71.71,0,0,1-.44-1.28,18.23,18.23,0,0,0,2.56-2.36,6.27,6.27,0,0,0,1-4c0-2.85-1-6.84-3.15-12l-32.61-83.4a.74.74,0,0,1,.26-.86c1.29-.89,2.64-1.77,4-2.63a.72.72,0,0,1,1.07.34l33.28,84.39C143.2,112.67,144.38,117.25,144.38,120.39Z"/><path class="cls-2" d="M66.56,242.06a.72.72,0,0,1-.31-1.33c2.73-1.75,5.25-3.49,7.58-5.16A29.81,29.81,0,0,0,86,205.76c-4.77-24.46-20.71-48.56-31.54-72.08-.83-1.77-4.18-9.6-4.57-10.78C40.69,99,39.48,75.58,63.64,53.1a.72.72,0,0,1,1.12.87c-9.15,16.7-7.46,31-.48,44.23a56.62,56.62,0,0,0,3.94,6.65c16.48,24.79,49,46.25,57.91,73.11C135.79,211.77,102.78,245.57,66.56,242.06Z"/></g></g></svg>