<svg xmlns="http://www.w3.org/2000/svg" viewBox="0 0 75.4 114.4"><defs><style>.cls-1{fill:#2d6a4f;}.cls-2{fill:#fff;}</style></defs><g id="Layer_2" data-name="Layer 2"><g id="Layer_1-2" data-name="Layer 1"><path class="cls-1" d="M75.16,54.62a10.43,10.43,0,0,1-4.72-2.13A15.05,15.05,0,0,1,67.17,47L49.53,2a3.14,3.14,0,0,0-2.91-2,3,3,0,0,0-1.26.27,64,64,0,0,0-6.28,3.21h0l-.47.29h0l-1.44.87-.06,0C14.53,21.37-1.22,46.5.07,75.52c0,.87.09,1.85.17,2.65v0a18.29,18.29,0,0,0,.27,2.62s0,0,0,.06a25.39,25.39,0,0,0,.35,2.67c.08.45.29,1.73.46,2.67a.25.25,0,0,0,0,.07c.28.64.55,1.38.82,2.08,3.94,10,8.38,21.2,20.11,25.11,14.66,4.19,33.51-6.28,35.61-23,3.5-21-16.36-36.13-21.79-55.2l-.65-2.59a27,27,0,0,1-.56-3.71,28.23,28.23,0,0,1,0-5.52v0c0-.25,0-.52,0-.77A12,12,0,0,1,37.45,16,23.18,23.18,0,0,1,42,11.68a.3.3,0,0,1,.47.13L50.7,32.64l1,2.59L56.3,46.9a11.46,11.46,0,0,1,1.17,4.28,2.46,2.46,0,0,1-1.57,2.51,16.79,16.79,0,0,1-4.41,1,.31.31,0,0,0-.28.31,8.45,8.45,0,0,0,2.49,5.75,8.59,8.59,0,0,0,6,2.49h7.15a8.53,8.53,0,0,0,8.52-8.27A.31.31,0,0,0,75.16,54.62ZM53.7,75.77c4.11,14.39-9.94,28.79-25.36,27.29a.31.31,0,0,1-.14-.56c1.17-.75,2.24-1.49,3.23-2.2a12.71,12.71,0,0,0,5.2-12.7c-2-10.41-8.82-20.67-13.43-30.68-.35-.76-1.78-4.09-1.95-4.59-3.93-10.2-4.44-20.15,5.84-29.72a.31.31,0,0,1,.48.37c-3.89,7.11-3.17,13.21-.2,18.83a23.39,23.39,0,0,0,1.68,2.83C36.06,55.2,49.89,64.33,53.7,75.77Zm6.72-22.12a4,4,0,0,1-3,1,.3.3,0,0,1-.31-.3.3.3,0,0,1,.12-.24,7.68,7.68,0,0,0,1.09-1,2.62,2.62,0,0,0,.44-1.71,14.42,14.42,0,0,0-1.34-5.09L43.59,10.8a.29.29,0,0,1,.11-.36c.55-.38,1.12-.75,1.68-1.12a.31.31,0,0,1,.46.14L60,45.39a18.8,18.8,0,0,1,1.46,5.87A3.2,3.2,0,0,1,60.42,53.65Z"/><path class="cls-2" d="M61.47,51.26a3.2,3.2,0,0,1-1,2.39,4,4,0,0,1-3,1h0a.3.3,0,0,1-.19-.54,7.68,7.68,0,0,0,1.09-1,2.68,2.68,0,0,0,.44-1.71,14.42,14.42,0,0,0-1.34-5.09L43.59,10.8a.3.3,0,0,1,.11-.36c.55-.38,1.12-.75,1.68-1.12a.31.31,0,0,1,.46.14L60,45.39A18.8,18.8,0,0,1,61.47,51.26Z"/><path class="cls-2" d="M28.34,103.06a.31.31,0,0,1-.14-.56c1.17-.75,2.24-1.49,3.23-2.2a12.71,12.71,0,0,0,5.2-12.7c-2-10.41-8.82-20.67-13.43-30.68-.36-.76-1.78-4.09-1.95-4.59-3.92-10.2-4.44-20.15,5.84-29.72a.31.31,0,0,1,.48.37c-3.89,7.11-3.17,13.21-.2,18.83A24.68,24.68,0,0,0,29,44.64c7,10.56,20.85,19.69,24.66,31.13C57.81,90.16,43.76,104.56,28.34,103.06Z"/></g></g></svg>