<svg xmlns="http://www.w3.org/2000/svg" viewBox="0 0 857.54 648.8"><defs><style>.cls-1{fill:#74c69d;}.cls-1,.cls-10,.cls-11,.cls-12,.cls-13,.cls-14,.cls-15,.cls-16,.cls-17,.cls-18,.cls-3,.cls-5,.cls-6,.cls-7,.cls-8,.cls-9{stroke:#1a1a1a;}.cls-1,.cls-10,.cls-11,.cls-12,.cls-13,.cls-14,.cls-15,.cls-16,.cls-17,.cls-18,.cls-2,.cls-3,.cls-5,.cls-6,.cls-7,.cls-8,.cls-9{stroke-linecap:round;stroke-linejoin:round;}.cls-1,.cls-10,.cls-11,.cls-12,.cls-13,.cls-14,.cls-15,.cls-16,.cls-17,.cls-18,.cls-3,.cls-5,.cls-6,.cls-8{stroke-width:3.64px;}.cls-12,.cls-2,.cls-3,.cls-9{fill:none;}.cls-2{stroke:#2d6a4f;}.cls-2,.cls-9{stroke-width:5.47px;}.cls-4{fill:#ced4da;}.cls-5{fill:#2d6a4f;}.cls-6{fill:#fff;}.cls-7{fill:#1c0311;stroke-width:1.82px;}.cls-8{fill:#ffedd8;}.cls-10{fill:#e9e3ef;}.cls-11{fill:#e2eafc;}.cls-12{stroke-dasharray:21.86;}.cls-13{fill:#54cafa;}.cls-14{fill:#e9ecef;}.cls-15{fill:#ffcfd2;}.cls-16{fill:#90caf9;}.cls-17{fill:#ff8fa3;}.cls-18{fill:#1a1a1a;}.cls-19{font-size:33px;font-family:ArialRoundedMTBold, Arial Rounded MT Bold;}.cls-20{letter-spacing:-0.02em;}.cls-21{letter-spacing:-0.01em;}.cls-22{letter-spacing:0em;}.cls-23{fill:#b5b1b3;}.cls-24{fill:#f6f6f6;}.cls-25{fill:#1d1d1b;}.cls-26{font-size:56.15px;font-family:BerlinSansFB-Reg, Berlin Sans FB;}</style></defs><g id="Layer_2" data-name="Layer 2"><g id="Layer_1-2" data-name="Layer 1"><path class="cls-1" d="M700.45,489.36c4.48-20.08,24.64-7.78,36.4-2.7,8.91,3.61,19.3-.51,20.81-10.45,1.69-9.46.43-19.69,4.91-28.51,9-20.72,37.59-14.44,37.2,8-5.45,22.12,16.34,25.07,18.94,10,.92-18.4,22.33-24.75,32.32-9.19,8.92,13.14,5.13,37.8-11.44,42.06-4.75,1.09-9.69,0-14.56,0C798.88,499.9,817.56,518.66,813,532c-2.39,5.1-9,7.1-14.49,5.93-12.39-1.58-23.13-23.9-36-12.6-3,3.72-1.8,9.11-2.51,13.82-1.33,8.87-9.77,15.3-18.54,17.15-17.72,3.71-35.52-7.08-53.25-3.8-8.47,1.58-17.45,6.29-25.15,2.41-12.93-5.81-11.53-38.5-4.21-48,5-6.48,13.47-8.95,21.37-11C687.52,493.92,693.15,491.29,700.45,489.36Z"/><path class="cls-2" d="M669.31,531.89s84.32-13.4,123.33-45.85m-9-17.84s3.59,19.54-7.28,29m16.82,10.14s-8.23,5.19-30.12-3.23m-24.78-4.41s1.26,12.35-6.77,16.78m1.11,16.86s-18.5-2.21-19.37-11.35"/><path class="cls-3" d="M706.05,371.15s-6.61,40.9-18.21,60.54S647,471.54,647.72,482.58m36.13-15.86c0,.9-8,11.62-28.4,1.87m.64-32.09s-2.3,20.1,4.57,26.45m52.39-85.36A12.64,12.64,0,0,1,703,386.92"/><ellipse class="cls-4" cx="196.84" cy="613.61" rx="135.72" ry="35.19"/><path class="cls-5" d="M40.15,559.46H688.42c1.11-1.6,12.8-19.08,5.51-38.18-6.46-16.93-25.06-27.9-45.32-25.73,5.36-36.33-3.17-72.67-26.34-88.81-34.23-23.85-105-6.82-142.72,61.25,3.67-44.72-25.73-79.63-64.32-96.78-51.66-18.38-79.14,22.18-91.27,33.08-15-16.49-38.84-37.1-72.89-48.39-39.3-13-108.83-19.21-135.37,19.6-9.42,13.77-11,29.68-10.41,42.26-37.25-12-77.61,4.59-94.95,38C-8.22,491.5,4.36,537.41,40.15,559.46Z"/><rect class="cls-6" x="380.42" y="310.94" width="44.31" height="91.67"/><polygon class="cls-7" points="430.8 393.44 374.75 393.44 212.96 466.78 261.37 466.78 402.77 418.84 544.18 466.78 592.6 466.78 430.8 393.44"/><rect class="cls-8" x="119.67" y="466.78" width="521.99" height="83.01"/><line class="cls-3" x1="538.29" y1="476.96" x2="538.29" y2="540.62"/><rect class="cls-7" x="119.67" y="549.79" width="521.99" height="9.68"/><line class="cls-3" x1="289.26" y1="476.96" x2="289.26" y2="540.62"/><line class="cls-3" x1="201.16" y1="476.96" x2="201.16" y2="540.62"/><line class="cls-9" x1="10.44" y1="559.21" x2="720.86" y2="559.21"/><rect class="cls-10" x="146.16" y="1.82" width="507.22" height="312.69" rx="11.67"/><path class="cls-11" d="M639.63,37V278.8a22.45,22.45,0,0,1-22.43,22.47h-82V14.55h82A22.45,22.45,0,0,1,639.63,37Z"/><rect class="cls-11" x="160.42" y="73.12" width="374.81" height="131.9"/><rect class="cls-12" x="172.64" y="81.27" width="350.37" height="113.56"/><circle class="cls-6" cx="458.7" cy="145.03" r="18.78"/><circle class="cls-6" cx="386.14" cy="45.21" r="18.78"/><circle class="cls-6" cx="437.51" cy="255.69" r="18.78"/><rect class="cls-12" x="172.64" y="217.24" width="350.37" height="72.82"/><path class="cls-13" d="M280,138.54s-4-1.63,3.13-5.17S298.26,141.81,298,146s-12.39,11.3-12.39,11.3Z"/><path class="cls-8" d="M301.91,114.64s-6.67-5.85-10.48,3.27-9,20.52-9,20.52,5.92,9.3,9.73,8.48C310,139,301.91,114.64,301.91,114.64Z"/><polygon class="cls-14" points="303.97 78.57 398.96 86.74 386.71 157.25 294.97 143.91 303.97 78.57"/><path class="cls-6" d="M351.28,114.17l24.34-13.48,1.91,2.65-26.89,14.5A3.66,3.66,0,0,1,351.28,114.17Z"/><path class="cls-15" d="M216.77,128.93s-62.48,60.85-48.39,90.66c9,16.95,36.14-1,36.14-1Z"/><path class="cls-7" d="M242.48,591.52l.9-4.41s-22.46-2.8-25.32-1.4c0,0-1.14,2.37-2.52,5.89C223.71,594.36,233.63,593.45,242.48,591.52Z"/><path d="M261.08,596.09c-8.31-.68-19.33-1-19.33-1l.73-3.62c-8.85,1.93-18.77,2.84-26.94.08-3.61,9.17-8.88,26.16.07,29.4,12.39,4.5,43.7-5,53.77-12.25C272.65,605.62,269.38,596.77,261.08,596.09Z"/><path class="cls-7" d="M142.59,587.73l1.53-6.86s-18.69-6.55-21.84-6.12a95.32,95.32,0,0,0-6.21,8.23C123.67,589,133.26,589.61,142.59,587.73Z"/><path class="cls-16" d="M196.35,274.92C181,286.15,154.9,345.77,169.19,430.71c-28.17,47.77-50.63,146.6-50.63,146.6s18.1,10.48,25.72,8c11-16.34,62.89-105.63,84.94-199.14,18-58,29.81-84.53,29.81-84.53l38.39-31S211.66,263.69,196.35,274.92Z"/><path d="M163.85,612.65C152,616.36,122,615.16,111.64,607c-6.44-5-.79-16.26,4.43-24,7.6,6,17.19,6.62,26.52,4.75l-.75,3.37s10.39,3.7,18.07,6.93S167.93,610.69,163.85,612.65Z"/><path class="cls-16" d="M245.76,264.3c.82,0,61.9,5.08,63.31,8.26s3.05,88.73-8,142.22-52.4,175.05-52.4,175.05-30.76,3.54-35.12-2.72c1.09-17.7,21.51-132,31.85-148.91-3.54-18.24-27.64-74.51-16.61-115.33"/><path class="cls-7" d="M196.27,279.39s9.34,5.54,32.74,5.93,53.36-5.67,63.8-5.93,16.82-2.59,16.82-2.59v-8.29l-113.36,3.66-2.17,4.75Z"/><path class="cls-17" d="M233.92,121.79s-17.36-4.9-34.71,26.13S187,268,196.35,274.92s46.35,8.58,60,5.92,39.81-3.06,48.19-4.9,10.61-21.64,9.59-39.61-.89-86.83-44.1-108.83C248,117.3,233.92,121.79,233.92,121.79Z"/><path class="cls-17" d="M247.4,161s11.77,79.76,72.27,63.7c52.07-13.81,39.55-92.22,39.55-92.22s-.14-1.36-4-1.36-14.16-4-14.16,2-2.71,40.75-18.24,44.37-22.7-18.42-25.28-22.37"/><path class="cls-8" d="M356,133.49s9.66-13.13,7.62-17.56-11.84-9.05-14.29-9.52-9.8,5.1-10.41,6.94.68,7.89,1.77,9.32,3.33,8.78,3.33,9.53S356,133.49,356,133.49Z"/><path class="cls-6" d="M349.55,113s-4.42,4.42-1.7,7.35-1.84,5-1.84,5"/><polygon class="cls-6" points="339.26 119.05 333.76 122.03 330.77 124.55 335.12 124.55 340.64 122.85 339.26 119.05"/><path class="cls-8" d="M242.7,106.49s8.92,1.16,14.5-2.11C268.77,95.13,246.1,58,246.1,58S207,78,207,78.45s8.3,26.14,8.84,26.27,7.49,2.59,7.49,2.59,1.63,10.21-.41,17.15c3.95,4.9,21.65,6.67,31.17.68,2.73-1.91.89-3.56.89-3.56s-4.3-12-4.77-15.11"/><path class="cls-7" d="M250.76,108.65s-7.28-.33-8.73-2c8.46.29,8.22.25,8.22.25Zm-21.4-24.21s-12.8-11.71-14.29,1.23,8.85,8.84,12.52,8.57c0,0,1.91,6.26,0,10.48s-13.75,13.34-19.06,8.58-15.11-23.87-14.29-33.72,4.9-18,11.71-21.82,31.85-9.53,34.16-17.83c1.09-4.49,6.54-1.36,9.12,4.36s7.22,7.75,3,12-21.37,10.08-23.41,10.62c.4,9.53,6.26,17.7,5.3,18S230.59,86.75,229.36,84.44Z"/><circle class="cls-6" cx="589.69" cy="203.24" r="20.58"/><path class="cls-6" d="M600.74,212.66h-22.1s-.21-2.56,1.12-3.18,2.35-13.2,6.14-14.73l1.51-.61a2.47,2.47,0,0,1,.61-2.73,2.22,2.22,0,0,1,1-.57,2.46,2.46,0,0,1,2.94,3.3l1.51.61c3.79,1.53,4.81,14.12,6.14,14.73S600.74,212.66,600.74,212.66Z"/><path class="cls-18" d="M593.23,212.66a3.54,3.54,0,0,1-7.08,0Z"/><rect class="cls-6" x="550" y="500.39" width="3.56" height="16.81"/><rect class="cls-6" x="297.41" y="500.39" width="3.56" height="16.81"/><rect class="cls-6" x="206.25" y="500.39" width="3.56" height="16.81"/><rect class="cls-7" x="554.58" y="38.49" width="65.19" height="15.79"/><rect class="cls-7" x="554.58" y="274.28" width="65.19" height="15.79"/><rect class="cls-7" x="554.58" y="241.17" width="65.19" height="15.79"/><text class="cls-19" transform="translate(544.48 89.64)">HTML<tspan x="0" y="39.6">CSS</tspan><tspan x="0" y="79.2">J</tspan><tspan class="cls-20" x="18.92" y="79.2">a</tspan><tspan class="cls-21" x="37.71" y="79.2">v</tspan><tspan class="cls-22" x="55.16" y="79.2">a </tspan></text><path class="cls-23" d="M714.4,300.62V323.7a21.21,21.21,0,0,1-9.6,18,16.34,16.34,0,0,1-8.49,2.66V280a16.3,16.3,0,0,1,11.05,4.36A21.67,21.67,0,0,1,714.4,300.62Z"/><path class="cls-24" d="M696.31,280v64.34H696a16,16,0,0,1-9.46-3.28,20.93,20.93,0,0,1-8.36-17V298.21A18.1,18.1,0,0,1,688,281.92,18.58,18.58,0,0,1,696.31,280Z"/><circle class="cls-25" cx="696.31" cy="296.68" r="3.93"/><circle class="cls-6" cx="84.75" cy="274.84" r="36.36"/><text class="cls-26" transform="translate(58.59 290.79)">{ }</text><circle class="cls-6" cx="724.77" cy="65.7" r="36.36"/><text class="cls-26" transform="translate(697.76 83.65)">&lt; &gt;</text></g></g></svg>