<svg xmlns="http://www.w3.org/2000/svg" viewBox="0 0 974.25 737.22"><defs><style>.cls-1{fill:#74c69d;}.cls-1,.cls-10,.cls-11,.cls-12,.cls-13,.cls-14,.cls-15,.cls-16,.cls-17,.cls-18,.cls-3,.cls-5,.cls-6,.cls-7,.cls-8,.cls-9{stroke:#1a1a1a;}.cls-1,.cls-10,.cls-11,.cls-12,.cls-13,.cls-14,.cls-15,.cls-16,.cls-17,.cls-18,.cls-2,.cls-3,.cls-5,.cls-6,.cls-7,.cls-8,.cls-9{stroke-linecap:round;stroke-linejoin:round;}.cls-1,.cls-10,.cls-11,.cls-12,.cls-13,.cls-14,.cls-15,.cls-16,.cls-17,.cls-18,.cls-3,.cls-5,.cls-6,.cls-8{stroke-width:3.64px;}.cls-12,.cls-2,.cls-3,.cls-9{fill:none;}.cls-2{stroke:#2d6a4f;}.cls-2,.cls-9{stroke-width:5.47px;}.cls-4{fill:#ced4da;}.cls-5{fill:#2d6a4f;}.cls-6{fill:#fff;}.cls-7{fill:#1c0311;stroke-width:1.82px;}.cls-8{fill:#ffedd8;}.cls-10{fill:#e9e3ef;}.cls-11{fill:#e2eafc;}.cls-12{stroke-dasharray:21.86;}.cls-13{fill:#54cafa;}.cls-14{fill:#e9ecef;}.cls-15{fill:#ffcfd2;}.cls-16{fill:#90caf9;}.cls-17{fill:#ff8fa3;}.cls-18{fill:#1a1a1a;}.cls-19{font-size:37.51px;font-family:ArialRoundedMTBold, Arial Rounded MT Bold;}.cls-20{letter-spacing:-0.02em;}.cls-21{letter-spacing:-0.01em;}.cls-22{fill:#b5b1b3;}.cls-23{fill:#f6f6f6;}.cls-24{fill:#1d1d1b;}.cls-25{font-size:63.83px;font-family:BerlinSansFB-Reg, Berlin Sans FB;}</style></defs><g id="Layer_2" data-name="Layer 2"><g id="Layer_1-2" data-name="Layer 1"><path class="cls-1" d="M795.93,556c5.09-22.82,28-8.85,41.38-3.07,10.12,4.1,21.93-.58,23.65-11.88,1.93-10.75.49-22.38,5.58-32.41,10.26-23.54,42.73-16.41,42.28,9.11-6.19,25.15,18.58,28.5,21.53,11.32,1-20.91,25.39-28.12,36.74-10.45,10.14,14.95,5.84,43-13,47.82-5.4,1.23-11,.06-16.55,0-29.72,1.59-8.49,22.91-13.73,38.07-2.7,5.8-10.19,8.07-16.46,6.74-14.08-1.79-26.29-27.16-40.87-14.32-3.38,4.23-2.05,10.36-2.86,15.71-1.51,10.07-11.11,17.39-21.07,19.49-20.14,4.21-40.37-8.05-60.53-4.32-9.63,1.8-19.84,7.15-28.59,2.75-14.69-6.61-13.1-43.77-4.78-54.58,5.66-7.36,15.3-10.17,24.28-12.55C781.23,561.18,787.63,558.19,795.93,556Z"/><path class="cls-2" d="M760.54,604.34s95.84-15.23,140.18-52.13m-10.27-20.27s4.08,22.21-8.28,33m19.12,11.52s-9.35,5.91-34.24-3.67m-28.17-5s1.44,14-7.69,19.07M832.45,606s-21-2.52-22-12.9"/><path class="cls-3" d="M802.3,421.63s-7.51,46.49-20.7,68.81-46.43,45.29-45.6,57.85m41.06-18c.07,1-9.11,13.2-32.28,2.12m.73-36.48S742.9,518.75,750.7,526m59.55-97a14.39,14.39,0,0,1-11.47,10.62"/><ellipse class="cls-4" cx="223.49" cy="697.22" rx="154.27" ry="40"/><path class="cls-5" d="M45.39,635.67H782.26c1.26-1.81,14.55-21.68,6.27-43.4C781.18,573,760,560.56,737,563c6.1-41.29-3.6-82.61-29.94-100.95-38.9-27.11-119.4-7.75-162.22,69.62,4.18-50.83-29.24-90.51-73.11-110-58.72-20.88-90,25.21-103.74,37.6-17-18.74-44.15-42.16-82.85-55-44.68-14.83-123.71-21.84-153.88,22.28-10.7,15.65-12.51,33.74-11.83,48C77.09,461,31.21,479.83,11.51,517.78-9.59,558.42,4.7,610.61,45.39,635.67Z"/><rect class="cls-6" x="432.16" y="353.19" width="50.36" height="104.19"/><polygon class="cls-7" points="489.43 446.97 425.72 446.97 241.81 530.32 296.84 530.32 457.57 475.84 618.31 530.32 673.34 530.32 489.43 446.97"/><rect class="cls-8" x="135.78" y="530.32" width="593.33" height="94.35"/><line class="cls-3" x1="611.61" y1="541.9" x2="611.61" y2="614.26"/><rect class="cls-7" x="135.78" y="624.68" width="593.33" height="11"/><line class="cls-3" x1="328.54" y1="541.9" x2="328.54" y2="614.26"/><line class="cls-3" x1="228.4" y1="541.9" x2="228.4" y2="614.26"/><line class="cls-9" x1="11.62" y1="635.39" x2="819.13" y2="635.39"/><rect class="cls-10" x="165.88" y="1.82" width="576.55" height="355.42" rx="13.27"/><path class="cls-11" d="M726.8,41.83V316.65a25.52,25.52,0,0,1-25.5,25.54H608.13V16.29H701.3A25.52,25.52,0,0,1,726.8,41.83Z"/><rect class="cls-11" x="182.09" y="82.86" width="426.04" height="149.92"/><rect class="cls-12" x="195.98" y="92.12" width="398.26" height="129.09"/><circle class="cls-6" cx="521.14" cy="164.6" r="21.35"/><circle class="cls-6" cx="438.66" cy="51.14" r="21.35"/><circle class="cls-6" cx="497.05" cy="290.39" r="21.35"/><rect class="cls-12" x="195.98" y="246.68" width="398.26" height="82.78"/><path class="cls-13" d="M318,157.23s-4.54-1.86,3.56-5.88,17.17,9.59,16.86,14.39-14.08,12.84-14.08,12.84Z"/><path class="cls-8" d="M342.93,130.06s-7.59-6.65-11.92,3.71-10.25,23.33-10.25,23.33,6.73,10.57,11.06,9.64C352.09,157.72,342.93,130.06,342.93,130.06Z"/><polygon class="cls-14" points="345.26 89.06 453.24 98.34 439.32 178.49 335.03 163.33 345.26 89.06"/><path class="cls-6" d="M399,129.52l27.67-15.32,2.16,3L398.32,133.7A4.19,4.19,0,0,1,399,129.52Z"/><path class="cls-15" d="M246.15,146.31s-71,69.16-55,103c10.21,19.26,41.08-1.16,41.08-1.16Z"/><path class="cls-7" d="M275.37,672.12l1-5s-25.52-3.18-28.77-1.59c0,0-1.3,2.7-2.88,6.7C254,675.34,265.31,674.31,275.37,672.12Z"/><path d="M296.51,677.31c-9.44-.77-22-1.08-22-1.08l.83-4.11c-10.06,2.19-21.34,3.22-30.63.09-4.1,10.42-10.08,29.73.09,33.42,14.08,5.1,49.67-5.73,61.12-13.93C309.66,688.14,306,678.09,296.51,677.31Z"/><path class="cls-7" d="M161.83,667.81l1.74-7.8s-21.24-7.45-24.83-7a103.49,103.49,0,0,0-7.05,9.35C140.33,669.29,151.23,669.94,161.83,667.81Z"/><path class="cls-16" d="M222.94,312.25c-17.41,12.76-47.11,80.53-30.87,177.08-32,54.3-57.55,166.64-57.55,166.64s20.57,11.91,29.23,9.12C176.29,646.52,235.24,545,260.3,438.74c20.43-65.92,33.89-96.09,33.89-96.09l43.63-35.28S240.34,299.48,222.94,312.25Z"/><path d="M186,696.14c-13.44,4.21-47.57,2.85-59.35-6.39-7.32-5.74-.89-18.48,5-27.34,8.64,6.88,19.54,7.53,30.14,5.4l-.85,3.83s11.81,4.21,20.54,7.88S190.64,693.91,186,696.14Z"/><path class="cls-16" d="M279.1,300.18c.93,0,70.36,5.77,72,9.38s3.46,100.86-9.07,161.66-59.57,199-59.57,199-35,4-39.92-3.1C243.75,647,267,517,278.72,497.84c-4-20.74-31.42-84.69-18.89-131.1"/><path class="cls-7" d="M222.84,317.32s10.63,6.3,37.22,6.74,60.65-6.44,72.52-6.74,19.12-2.94,19.12-2.94V305l-128.86,4.16-2.46,5.4Z"/><path class="cls-17" d="M265.64,138.18s-19.73-5.57-39.45,29.71-13.93,136.47-3.25,144.36S275.62,322,291.17,319s45.26-3.48,54.77-5.57,12.07-24.6,10.91-45-1-98.7-50.13-123.7C281.66,133.08,265.64,138.18,265.64,138.18Z"/><path class="cls-17" d="M281,182.74s13.38,90.66,82.16,72.41c59.18-15.7,44.94-104.82,44.94-104.82s-.15-1.55-4.48-1.55-16.09-4.48-16.09,2.32-3.09,46.31-20.74,50.43S341,180.59,338,176.11"/><path class="cls-8" d="M404.35,151.49s11-14.93,8.66-20-13.46-10.29-16.24-10.83-11.14,5.8-11.84,7.89.78,9,2,10.6,3.79,10,3.79,10.83S404.35,151.49,404.35,151.49Z"/><path class="cls-6" d="M397.08,128.2s-5,5-1.94,8.36-2.08,5.65-2.08,5.65"/><polygon class="cls-6" points="385.38 135.07 379.13 138.47 375.73 141.33 380.68 141.33 386.94 139.39 385.38 135.07"/><path class="cls-8" d="M275.62,120.8s10.14,1.31,16.48-2.4c13.15-10.52-12.61-52.68-12.61-52.68s-44.41,22.74-44.41,23.2,9.44,29.71,10.06,29.87,8.51,2.94,8.51,2.94,1.86,11.6-.46,19.49c4.48,5.57,24.6,7.58,35.43.77,3.09-2.16,1-4,1-4s-4.88-13.62-5.41-17.17"/><path class="cls-7" d="M284.79,123.26s-8.28-.39-9.93-2.31c9.62.33,9.34.27,9.34.27ZM260.46,95.73s-14.55-13.3-16.25,1.39,10.06,10.06,14.24,9.75c0,0,2.16,7.12,0,11.92s-15.63,15.16-21.66,9.74-17.18-27.13-16.25-38.32,5.57-20.47,13.31-24.8,36.2-10.83,38.83-20.27c1.24-5.11,7.43-1.55,10.37,5s8.2,8.82,3.4,13.61-24.29,11.45-26.61,12.07c.46,10.83,7.12,20.12,6,20.43S261.85,98.36,260.46,95.73Z"/><circle class="cls-6" cx="670.03" cy="230.77" r="23.39"/><path class="cls-6" d="M682.6,241.47H657.47s-.23-2.91,1.28-3.61,2.67-15,7-16.74l1.72-.7a2.8,2.8,0,0,1,.68-3.1,2.54,2.54,0,0,1,1.14-.64,2.79,2.79,0,0,1,3.55,2.69,2.72,2.72,0,0,1-.2,1l1.72.7c4.3,1.74,5.46,16,7,16.74S682.6,241.47,682.6,241.47Z"/><path class="cls-18" d="M674.05,241.47a4,4,0,1,1-8,0Z"/><rect class="cls-6" x="624.92" y="568.53" width="4.05" height="19.1"/><rect class="cls-6" x="337.8" y="568.53" width="4.05" height="19.1"/><rect class="cls-6" x="234.19" y="568.53" width="4.05" height="19.1"/><rect class="cls-7" x="630.13" y="43.5" width="74.09" height="17.94"/><rect class="cls-7" x="630.13" y="311.51" width="74.09" height="17.94"/><rect class="cls-7" x="630.13" y="273.89" width="74.09" height="17.94"/><text class="cls-19" transform="translate(618.65 101.64)">HTML<tspan x="0" y="45.01">CSS</tspan><tspan x="0" y="90.02">J</tspan><tspan class="cls-20" x="21.5" y="90.02">a</tspan><tspan class="cls-21" x="42.86" y="90.02">v</tspan><tspan x="62.69" y="90.02">a </tspan></text><path class="cls-22" d="M811.79,341.46v26.23a24.08,24.08,0,0,1-10.91,20.45,18.58,18.58,0,0,1-9.65,3V318a18.49,18.49,0,0,1,12.56,5A24.63,24.63,0,0,1,811.79,341.46Z"/><path class="cls-23" d="M791.23,318v73.14h-.31a18.16,18.16,0,0,1-10.75-3.73,23.81,23.81,0,0,1-9.5-19.29V338.72a20.59,20.59,0,0,1,11.09-18.52A21.24,21.24,0,0,1,791.23,318Z"/><circle class="cls-24" cx="791.23" cy="336.98" r="4.46"/><circle class="cls-6" cx="96.08" cy="312.16" r="41.33"/><text class="cls-25" transform="translate(66.35 330.29)">{ }</text><circle class="cls-6" cx="823.58" cy="74.43" r="41.33"/><text class="cls-25" transform="translate(792.88 94.84)">&lt; &gt;</text></g></g></svg>